<svg xmlns="http://www.w3.org/2000/svg" viewBox="0 0 140 100" fill="none">
  <path 
    d="M 45 76 C 25 76 20 48 42 43 C 42 16 95 16 98 38 C 118 38 126 62 108 76" 
    stroke="#8B6844" 
    stroke-width="5" 
    stroke-linecap="round" 
    fill="none"
  />
  <path 
    d="M 42 76 C 52 81 72 81 82 76 C 92 71 102 76 108 76" 
    stroke="#8B6844" 
    stroke-width="5" 
    stroke-linecap="round" 
    fill="none"
  />
  <path 
    d="M 106 76 L 106 64" 
    stroke="#8B6844" 
    stroke-width="4.5" 
    stroke-linecap="round"
  />
  <path 
    d="M 94 72 C 94 65 103 65 103 72 C 103 76 94 76 94 72 Z" 
    fill="#8B6844"
  />
  <path 
    d="M 72 26 Q 72 31 77 31 Q 72 31 72 36 Q 72 31 67 31 Q 72 31 72 26 Z" 
    fill="#8B6844"
  />
  <path 
    d="M 60 38 Q 60 41 63 41 Q 60 41 60 44 Q 60 41 57 41 Q 60 41 60 38 Z" 
    fill="#8B6844"
  />
  <path 
    d="M 84 36 Q 84 38 86 38 Q 84 38 84 40 Q 84 38 82 38 Q 84 38 84 36 Z" 
    fill="#8B6844"
  />
</svg>